# xmcd CD database file
#
# Track frame offsets:
#	150
#	34442
#	54967
#	74335
#	94675
#	111707
#	135180
#	154740
#	171345
#	194425
#	219190
#	238147
#	259065
#	277915
#	301352
#	328972
#
# Disc length: 4564 seconds
#
# Revision: 38
# Processed by: cddbd v1.5.2PL0 Copyright (c) Steve Scherf et al.
# Submitted via: CDex 1.81
#
DISCID=ec11d210
DTITLE=Celine Dion - Falling Into You
DYEAR=1996
DGENRE=Power Ballad
TTITLE0=It is All Coming Back To Me Now
TTITLE1=Because You Loved Me
TTITLE2=Falling Into You
TTITLE3=Make You Happy
TTITLE4=Seduces Me
TTITLE5=All By Myself
TTITLE6=Declaration Of Love
TTITLE7=You Make Me Feel Like A Natural Woman
TTITLE8=Dreaming  Of You
TTITLE9=I Love You
TTITLE10=If That is What It Takes
TTITLE11=I Do not Know
TTITLE12=River Deep Mountain High
TTITLE13=Your Light
TTITLE14=Call The Man
TTITLE15=Fly
EXTD=YEAR: 1996
EXTT0=
EXTT1=
EXTT2=
EXTT3=
EXTT4=
EXTT5=
EXTT6=
EXTT7=
EXTT8=
EXTT9=
EXTT10=
EXTT11=
EXTT12=
EXTT13=
EXTT14=
EXTT15=
PLAYORDER=
